# xmcd
#
# Track frame offsets:
#	150
#	11859
#	24493
#	38316
#	48349
#	61004
#	72614
#	83486
#	97788
#	109008
#	120424
#	134165
#	144630
#	156395
#	167733
#	182258
#	192912
#	206018
#	216467
#	227968
#
# Disc length: 3226 seconds
#
# Revision: 1
# Processed by: cddbd v1.5.2PL0 Copyright (c) Steve Scherf et al.
# Submitted via: audiograbber 1.83.01
#
DISCID=140c9814
DTITLE=The Greatest Country Music Recordings Of All Time - Record 81 and 82
DYEAR=1900
DGENRE=
TTITLE0=Merle Haggard - Sing A Sad Song
TTITLE1=Susan Raye - L.A. International Airport
TTITLE2=Tex Ritter - Have I Stayed Away Too Long
TTITLE3=Buck Owens - Tiger By The Tail
TTITLE4=Merle Travis - Dark As A Dungeon
TTITLE5=Buck Owens - Together Again
TTITLE6=Freddie Hart - Loose Talk
TTITLE7=Tex Ritter - I Dreamed Of A Hillbilly Heaven
TTITLE8=Tommy Collins - You Better Not Do That
TTITLE9=Bonnie Owens and The Strangers - Lead Me On
TTITLE10=Merle Travis - Divorce Me C.O.D.
TTITLE11=Buck Owens - Waitin' In Your Welfare Line
TTITLE12=Tennessee Ernie Ford - Shotgun Boogie
TTITLE13=Merle Haggard - Sidewalks Of Chicago
TTITLE14=Rose Maddox - Philadelphia Lawyer
TTITLE15=Buck Owens - Act Naturally
TTITLE16=Johnny Bond - Glad Rags
TTITLE17=Susan Raye - Pitty Pitty Patter
TTITLE18=Wynn Stewart - It's Such A Pretty World Today
TTITLE19=Merle Haggard - Always Wanting You
EXTD=
EXTT0=
EXTT1=
EXTT2=
EXTT3=
EXTT4=
EXTT5=
EXTT6=
EXTT7=
EXTT8=
EXTT9=
EXTT10=
EXTT11=
EXTT12=
EXTT13=
EXTT14=
EXTT15=
EXTT16=
EXTT17=
EXTT18=
EXTT19=
PLAYORDER=
